<?xml version="1.0" encoding="UTF-8"?>
<svg xmlns="http://www.w3.org/2000/svg" xmlns:xlink="http://www.w3.org/1999/xlink" width="512" height="512" viewBox="0 0 169 239" version="1.1">
<g id="surface1">
<path style=" stroke:none;fill-rule:nonzero;fill:rgb(14.901961%,30.196078%,89.411765%);fill-opacity:1;" d="M 168.875 46.96875 L 153.492188 219.777344 L 84.335938 239 L 15.367188 219.804688 L 0 46.96875 Z M 168.875 46.96875 "/>
<path style=" stroke:none;fill-rule:nonzero;fill:rgb(16.078431%,39.607843%,94.509804%);fill-opacity:1;" d="M 140.320312 208.773438 L 153.46875 61.101562 L 84.4375 61.101562 L 84.4375 224.304688 Z M 140.320312 208.773438 "/>
<path style=" stroke:none;fill-rule:nonzero;fill:rgb(92.156863%,92.156863%,92.156863%);fill-opacity:1;" d="M 35.234375 125.203125 L 37.128906 146.398438 L 84.4375 146.398438 L 84.4375 125.203125 Z M 35.234375 125.203125 "/>
<path style=" stroke:none;fill-rule:nonzero;fill:rgb(92.156863%,92.156863%,92.156863%);fill-opacity:1;" d="M 84.4375 82.296875 L 31.425781 82.296875 L 33.347656 103.496094 L 84.4375 103.496094 Z M 84.4375 82.296875 "/>
<path style=" stroke:none;fill-rule:nonzero;fill:rgb(92.156863%,92.156863%,92.156863%);fill-opacity:1;" d="M 84.4375 202.308594 L 84.4375 180.253906 L 84.34375 180.28125 L 60.800781 173.90625 L 59.292969 157 L 38.070312 157 L 41.035156 190.28125 L 84.339844 202.335938 Z M 84.4375 202.308594 "/>
<path style=" stroke:none;fill-rule:nonzero;fill:rgb(0%,0%,0%);fill-opacity:1;" d="M 39.742188 0 L 65.351562 0 L 65.351562 10.734375 L 50.453125 10.734375 L 50.453125 21.472656 L 65.351562 21.472656 L 65.351562 32.207031 L 39.742188 32.207031 Z M 39.742188 0 "/>
<path style=" stroke:none;fill-rule:nonzero;fill:rgb(0%,0%,0%);fill-opacity:1;" d="M 70.472656 0 L 96.078125 0 L 96.078125 9.335938 L 81.179688 9.335938 L 81.179688 11.203125 L 96.078125 11.203125 L 96.078125 32.675781 L 70.472656 32.675781 L 70.472656 22.871094 L 85.371094 22.871094 L 85.371094 21.003906 L 70.472656 21.003906 Z M 70.472656 0 "/>
<path style=" stroke:none;fill-rule:nonzero;fill:rgb(0%,0%,0%);fill-opacity:1;" d="M 101.199219 0 L 126.804688 0 L 126.804688 9.335938 L 111.90625 9.335938 L 111.90625 11.203125 L 126.804688 11.203125 L 126.804688 32.675781 L 101.199219 32.675781 L 101.199219 22.871094 L 116.097656 22.871094 L 116.097656 21.003906 L 101.199219 21.003906 Z M 101.199219 0 "/>
<path style=" stroke:none;fill-rule:nonzero;fill:rgb(100%,100%,100%);fill-opacity:1;" d="M 110.398438 146.398438 L 107.945312 173.890625 L 84.363281 180.273438 L 84.363281 202.324219 L 127.707031 190.28125 L 128.023438 186.699219 L 132.992188 130.894531 L 133.507812 125.203125 L 137.324219 82.296875 L 84.363281 82.296875 L 84.363281 103.496094 L 114.15625 103.496094 L 112.230469 125.203125 L 84.363281 125.203125 L 84.363281 146.398438 Z M 110.398438 146.398438 "/>
</g>
</svg>
