<?xml version="1.0" encoding="UTF-8"?>
<svg xmlns="http://www.w3.org/2000/svg" xmlns:xlink="http://www.w3.org/1999/xlink" width="900pt" height="650pt" viewBox="0 0 900 650" version="1.1">
<g id="surface1">
<path style=" stroke:none;fill-rule:nonzero;fill:rgb(14.901961%,30.196078%,89.411765%);fill-opacity:1;" d="M 767.730469 127.738281 L 709.804688 597.722656 L 449.382812 650 L 189.667969 597.796875 L 131.800781 127.738281 Z M 767.730469 127.738281 "/>
<path style=" stroke:none;fill-rule:nonzero;fill:rgb(16.078431%,39.607843%,94.509804%);fill-opacity:1;" d="M 660.203125 567.792969 L 709.714844 166.175781 L 449.765625 166.175781 L 449.765625 610.035156 Z M 660.203125 567.792969 "/>
<path style=" stroke:none;fill-rule:nonzero;fill:rgb(92.156863%,92.156863%,92.156863%);fill-opacity:1;" d="M 264.480469 340.511719 L 271.613281 398.15625 L 449.765625 398.15625 L 449.765625 340.511719 Z M 264.480469 340.511719 "/>
<path style=" stroke:none;fill-rule:nonzero;fill:rgb(92.156863%,92.156863%,92.156863%);fill-opacity:1;" d="M 449.765625 223.820312 L 250.140625 223.820312 L 257.375 281.476562 L 449.765625 281.476562 Z M 449.765625 223.820312 "/>
<path style=" stroke:none;fill-rule:nonzero;fill:rgb(92.156863%,92.156863%,92.156863%);fill-opacity:1;" d="M 449.765625 550.210938 L 449.765625 490.230469 L 449.410156 490.304688 L 360.757812 472.964844 L 355.078125 426.988281 L 275.160156 426.988281 L 286.324219 517.5 L 449.398438 550.285156 Z M 449.765625 550.210938 "/>
<path style=" stroke:none;fill-rule:nonzero;fill:rgb(0%,0%,0%);fill-opacity:1;" d="M 281.457031 0 L 377.894531 0 L 377.894531 29.195312 L 321.789062 29.195312 L 321.789062 58.398438 L 377.894531 58.398438 L 377.894531 87.59375 L 281.457031 87.59375 Z M 281.457031 0 "/>
<path style=" stroke:none;fill-rule:nonzero;fill:rgb(0%,0%,0%);fill-opacity:1;" d="M 397.175781 0 L 493.601562 0 L 493.601562 25.390625 L 437.496094 25.390625 L 437.496094 30.46875 L 493.601562 30.46875 L 493.601562 88.867188 L 397.175781 88.867188 L 397.175781 62.203125 L 453.28125 62.203125 L 453.28125 57.125 L 397.175781 57.125 Z M 397.175781 0 "/>
<path style=" stroke:none;fill-rule:nonzero;fill:rgb(0%,0%,0%);fill-opacity:1;" d="M 512.882812 0 L 609.304688 0 L 609.304688 25.390625 L 553.203125 25.390625 L 553.203125 30.46875 L 609.304688 30.46875 L 609.304688 88.867188 L 512.882812 88.867188 L 512.882812 62.203125 L 568.988281 62.203125 L 568.988281 57.125 L 512.882812 57.125 Z M 512.882812 0 "/>
<path style=" stroke:none;fill-rule:nonzero;fill:rgb(100%,100%,100%);fill-opacity:1;" d="M 547.527344 398.15625 L 538.289062 472.925781 L 449.484375 490.285156 L 449.484375 550.253906 L 612.703125 517.5 L 613.894531 507.757812 L 632.605469 355.988281 L 634.546875 340.511719 L 648.917969 223.820312 L 449.484375 223.820312 L 449.484375 281.476562 L 561.675781 281.476562 L 554.425781 340.511719 L 449.484375 340.511719 L 449.484375 398.15625 Z M 547.527344 398.15625 "/>
</g>
</svg>
