<?xml version="1.0" encoding="UTF-8"?>
<svg xmlns="http://www.w3.org/2000/svg" xmlns:xlink="http://www.w3.org/1999/xlink" width="900pt" height="650pt" viewBox="0 0 900 650" version="1.1">
<g id="surface1">
<path style=" stroke:none;fill-rule:nonzero;fill:rgb(0%,0%,0%);fill-opacity:1;" d="M 190.546875 0 L 230.976562 0 L 230.976562 28.945312 L 268.242188 28.945312 L 268.242188 0 L 308.671875 0 L 308.671875 87.597656 L 268.242188 87.597656 L 268.242188 58.398438 L 231.328125 58.398438 L 231.328125 87.597656 L 190.546875 87.597656 M 362.109375 29.199219 L 326.425781 29.199219 L 326.425781 0 L 438.398438 0 L 438.398438 29.199219 L 402.539062 29.199219 L 402.539062 87.597656 L 362.109375 87.597656 M 456.152344 0 L 498.515625 0 L 524.53125 30.851562 L 550.546875 0 L 592.910156 0 L 592.910156 87.597656 L 552.480469 87.597656 L 552.480469 44.179688 L 524.179688 75.664062 L 495.878906 44.179688 L 495.878906 87.597656 L 456.152344 87.597656 M 612.949219 0 L 653.378906 0 L 653.378906 58.652344 L 710.683594 58.652344 L 710.683594 87.597656 L 612.949219 87.597656 "/>
<path style=" stroke:none;fill-rule:nonzero;fill:rgb(89.411765%,30.196078%,14.901961%);fill-opacity:1;" d="M 189.140625 597.949219 L 131.132812 127.714844 L 768.867188 127.714844 L 710.859375 597.695312 L 449.472656 650 "/>
<path style=" stroke:none;fill-rule:nonzero;fill:rgb(94.509804%,39.607843%,16.078431%);fill-opacity:1;" d="M 450 610.007812 L 450 166.308594 L 710.683594 166.308594 L 660.9375 567.480469 "/>
<path style=" stroke:none;fill-rule:nonzero;fill:rgb(92.156863%,92.156863%,92.156863%);fill-opacity:1;" d="M 249.609375 223.820312 L 450 223.820312 L 450 281.453125 L 337.148438 281.453125 L 344.53125 340.488281 L 450 340.488281 L 450 398 L 271.40625 398 M 274.921875 426.945312 L 355.078125 426.945312 L 360.703125 473.027344 L 450 490.292969 L 450 550.46875 L 286.171875 517.460938 "/>
<path style=" stroke:none;fill-rule:nonzero;fill:rgb(100%,100%,100%);fill-opacity:1;" d="M 649.6875 223.820312 L 449.648438 223.820312 L 449.648438 281.453125 L 642.304688 281.453125 M 635.097656 340.488281 L 449.648438 340.488281 L 449.648438 398.125 L 548.085938 398.125 L 538.769531 473.027344 L 449.648438 490.292969 L 449.648438 550.214844 L 613.125 517.460938 "/>
</g>
</svg>
