<?xml version="1.0" encoding="utf-8"?>
<!-- Generator: Adobe Illustrator 24.0.2, SVG Export Plug-In . SVG Version: 6.00 Build 0)  -->
<svg version="1.1" xmlns="http://www.w3.org/2000/svg" xmlns:xlink="http://www.w3.org/1999/xlink" x="0px" y="0px"
	 viewBox="0 0 279.7 80.26" style="enable-background:new 0 0 279.7 80.26;" xml:space="preserve">
<style type="text/css">
	.st0{fill:url(#SVGID_1_);}
	.st1{fill:url(#SVGID_2_);}
	.st2{fill:url(#SVGID_3_);}
	.st3{fill:url(#SVGID_4_);}
	.st4{fill:url(#SVGID_5_);}
	.st5{fill:url(#SVGID_6_);}
	.st6{fill:url(#SVGID_7_);}
	.st7{fill:url(#SVGID_8_);}
	.st8{fill:url(#SVGID_9_);}
	.st9{fill:url(#SVGID_10_);}
	.st10{fill:#0052D4;}
	.st11{font-family:'ComicSansMS';}
	.st12{font-size:13.1985px;}
	.st13{letter-spacing:2.32;}
	.st14{fill:url(#SVGID_11_);}
	.st15{fill:url(#SVGID_12_);}
	.st16{fill:url(#SVGID_13_);}
	.st17{fill:url(#SVGID_14_);}
</style>
<g id="BACKGROUND">
</g>
<g id="OBJECTS">
	<g>
		<g>
			<g>
				<g>
					<linearGradient id="SVGID_1_" gradientUnits="userSpaceOnUse" x1="174.3099" y1="47.3124" x2="174.3099" y2="13.204">
						<stop  offset="0" style="stop-color:#0052D4"/>
						<stop  offset="1" style="stop-color:#6FB1FC"/>
					</linearGradient>
					<path class="st0" d="M90.27,19.58c-0.23,0-0.46-0.04-0.71-0.12c-1.83-0.58-3.62-0.87-5.35-0.87c-0.85,0-1.76,0.08-2.73,0.24
						c-0.97,0.16-2.01,0.39-3.11,0.71c0,1.75-0.05,4.35-0.15,7.79c0.63-0.05,2.85-0.3,6.64-0.73c2.16-0.25,3.53-0.37,4.11-0.37
						c0.67,0,1.24,0.25,1.71,0.74c0.48,0.49,0.71,1.15,0.71,1.96c0,1.56-0.72,2.45-2.16,2.66c-0.91,0.08-2.26,0.21-4.06,0.39
						c-1.61,0.21-4.03,0.47-7.27,0.77c-0.08,1.67-0.12,3.02-0.12,4.04c0,2.58,0.13,4.04,0.39,4.4c0.12,0.17,0.84,0.26,2.14,0.26
						c0.7,0,1.76-0.02,3.17-0.06c1.41-0.04,2.47-0.06,3.17-0.06c0.23,0,0.56-0.04,1-0.12c0.44-0.08,0.77-0.12,0.98-0.12
						c0.66,0,1.22,0.22,1.68,0.65c0.53,0.49,0.8,1.17,0.8,2.05c0,1.47-0.66,2.35-1.99,2.64c-1.13,0.25-3.48,0.38-7.05,0.38
						c-3.69,0-6.09-0.58-7.22-1.74c-1.23-1.28-1.85-4.04-1.85-8.29c0-1.76,0.11-4.41,0.33-7.94c0.22-3.53,0.33-6.17,0.33-7.92
						c0-0.46-0.06-1.14-0.17-2.04c-0.11-0.9-0.17-1.58-0.17-2.04c0-2,0.79-3,2.38-3c0.5,0,0.96,0.16,1.38,0.49
						c1.31-0.38,2.56-0.67,3.74-0.86c1.18-0.19,2.3-0.29,3.35-0.29c2.85,0,5.13,0.38,6.84,1.14c1.04,0.46,1.56,1.3,1.56,2.51
						c0,0.68-0.2,1.29-0.61,1.81C91.54,19.27,90.97,19.58,90.27,19.58z"/>
					<linearGradient id="SVGID_2_" gradientUnits="userSpaceOnUse" x1="174.3099" y1="47.3124" x2="174.3099" y2="13.204">
						<stop  offset="0" style="stop-color:#0052D4"/>
						<stop  offset="1" style="stop-color:#6FB1FC"/>
					</linearGradient>
					<path class="st1" d="M99.28,27.41c1.71-2.3,3.33-3.45,4.86-3.45c1.74,0,3.02,0.77,3.84,2.31c0.69-0.71,1.45-1.24,2.29-1.6
						s1.74-0.53,2.72-0.53c2.22,0,3.72,1.28,4.52,3.85c0.16,0.53,0.4,2.31,0.73,5.35c0.32,2.13,0.72,5.68,1.22,10.65
						c0.05,0.75-0.18,1.37-0.66,1.85c-0.49,0.49-1.06,0.73-1.71,0.73c-1.3,0-2.07-0.75-2.29-2.25c-0.2-1.35-0.41-3.27-0.63-5.74
						c-0.23-2.71-0.41-4.63-0.56-5.76c-0.31-2.35-0.7-3.53-1.17-3.53c-0.26,0-0.85,0.3-1.78,0.91c-0.93,0.61-1.61,1.12-2.04,1.56
						c0,1.5,0.15,3.66,0.46,6.47c0.32,2.88,0.48,5.04,0.48,6.47c0,0.75-0.22,1.37-0.66,1.87c-0.44,0.5-1,0.75-1.68,0.75
						s-1.24-0.25-1.68-0.75c-0.44-0.5-0.66-1.12-0.66-1.87c0-1.5-0.14-3.71-0.42-6.62s-0.42-5.12-0.42-6.62
						c0-0.84-0.06-1.51-0.19-2.01c-1.31,0.88-2.63,2.35-3.96,4.4c-0.06,0.09-0.15,0.23-0.29,0.41c-0.04,2.66-0.07,4.74-0.07,6.25
						c0,0.37-0.01,0.87-0.03,1.49c-0.02,0.62-0.03,1.09-0.03,1.39c0,0.71-0.25,1.27-0.75,1.68c-0.45,0.38-1.01,0.57-1.68,0.57
						c-0.96,0-1.61-0.49-1.95-1.46c-0.24-0.66-0.36-1.7-0.36-3.14V33.7c0-0.66-0.02-1.62-0.07-2.89c-0.05-1.27-0.07-2.23-0.07-2.89
						c0-1.17,0.18-2.23,0.54-3.18c0.44-1.18,1.06-1.78,1.87-1.78c0.63,0,1.2,0.29,1.7,0.86c0.5,0.57,0.75,1.2,0.75,1.88
						C99.43,25.44,99.38,26,99.28,27.41z"/>
					<linearGradient id="SVGID_3_" gradientUnits="userSpaceOnUse" x1="174.3099" y1="47.3124" x2="174.3099" y2="13.204">
						<stop  offset="0" style="stop-color:#0052D4"/>
						<stop  offset="1" style="stop-color:#6FB1FC"/>
					</linearGradient>
					<path class="st2" d="M126.29,27.41c1.71-2.3,3.33-3.45,4.86-3.45c1.74,0,3.02,0.77,3.84,2.31c0.69-0.71,1.45-1.24,2.29-1.6
						s1.74-0.53,2.72-0.53c2.22,0,3.72,1.28,4.52,3.85c0.16,0.53,0.4,2.31,0.73,5.35c0.32,2.13,0.72,5.68,1.22,10.65
						c0.04,0.75-0.18,1.37-0.66,1.85c-0.49,0.49-1.06,0.73-1.71,0.73c-1.3,0-2.07-0.75-2.29-2.25c-0.2-1.35-0.41-3.27-0.63-5.74
						c-0.23-2.71-0.41-4.63-0.56-5.76c-0.31-2.35-0.7-3.53-1.17-3.53c-0.26,0-0.85,0.3-1.78,0.91c-0.93,0.61-1.61,1.12-2.04,1.56
						c0,1.5,0.15,3.66,0.46,6.47c0.32,2.88,0.48,5.04,0.48,6.47c0,0.75-0.22,1.37-0.66,1.87c-0.44,0.5-1,0.75-1.68,0.75
						s-1.24-0.25-1.68-0.75c-0.44-0.5-0.66-1.12-0.66-1.87c0-1.5-0.14-3.71-0.42-6.62s-0.42-5.12-0.42-6.62
						c0-0.84-0.06-1.51-0.19-2.01c-1.31,0.88-2.63,2.35-3.96,4.4c-0.06,0.09-0.15,0.23-0.29,0.41c-0.04,2.66-0.07,4.74-0.07,6.25
						c0,0.37-0.01,0.87-0.03,1.49c-0.02,0.62-0.03,1.09-0.03,1.39c0,0.71-0.25,1.27-0.75,1.68c-0.45,0.38-1.01,0.57-1.68,0.57
						c-0.96,0-1.61-0.49-1.95-1.46c-0.24-0.66-0.36-1.7-0.36-3.14V33.7c0-0.66-0.02-1.62-0.07-2.89c-0.05-1.27-0.07-2.23-0.07-2.89
						c0-1.17,0.18-2.23,0.54-3.18c0.44-1.18,1.06-1.78,1.87-1.78c0.63,0,1.2,0.29,1.7,0.86c0.5,0.57,0.75,1.2,0.75,1.88
						C126.44,25.44,126.39,26,126.29,27.41z"/>
					<linearGradient id="SVGID_4_" gradientUnits="userSpaceOnUse" x1="174.3099" y1="47.3124" x2="174.3099" y2="13.204">
						<stop  offset="0" style="stop-color:#0052D4"/>
						<stop  offset="1" style="stop-color:#6FB1FC"/>
					</linearGradient>
					<path class="st3" d="M163.56,45.95c-0.52,0-1.35-0.59-2.48-1.76c-1.04,0.58-1.96,1.02-2.75,1.31c-0.79,0.3-1.47,0.44-2.02,0.44
						c-2.73,0-4.77-0.85-6.14-2.54c-1.36-1.7-2.04-4.23-2.04-7.61c0-3.17,1.01-5.88,3.02-8.14c2.01-2.26,4.42-3.38,7.23-3.38
						c1.08,0,2.32,0.35,3.73,1.05c1.71,0.85,2.56,1.83,2.56,2.95c0,0.47-0.13,0.88-0.39,1.23c-0.11,0.52-0.2,1.18-0.26,1.96
						c-0.06,0.79-0.09,1.71-0.09,2.76c0,2.49,0.15,4.28,0.46,5.37c0.03,0.12,0.29,0.79,0.78,2.03c0.44,1.12,0.66,1.76,0.66,1.91
						c0,0.69-0.23,1.26-0.69,1.72C164.68,45.72,164.15,45.95,163.56,45.95z M159.35,32.64c0-0.42,0.03-0.9,0.08-1.45
						s0.13-1.15,0.23-1.82c-0.23-0.13-0.43-0.23-0.6-0.29c-0.17-0.06-0.33-0.09-0.45-0.09c-1.54,0-2.89,0.7-4.04,2.1
						c-1.15,1.4-1.73,3.02-1.73,4.86c0,1.76,0.27,3.09,0.82,3.97c0.54,0.89,1.36,1.33,2.44,1.33c0.7,0,1.37-0.13,2-0.4
						c0.63-0.27,1.22-0.67,1.77-1.19C159.52,36.53,159.35,34.19,159.35,32.64z"/>
					<linearGradient id="SVGID_5_" gradientUnits="userSpaceOnUse" x1="174.3099" y1="47.3124" x2="174.3099" y2="13.204">
						<stop  offset="0" style="stop-color:#0052D4"/>
						<stop  offset="1" style="stop-color:#6FB1FC"/>
					</linearGradient>
					<path class="st4" d="M181.6,46.27c-1.39,0-2.17-0.8-2.33-2.39c-0.16-1.35-0.32-2.72-0.48-4.08c-0.17-1.45-0.25-2.81-0.25-4.08
						c0-0.34,0.02-0.93,0.06-1.76c0.04-0.83,0.06-1.41,0.06-1.76c0-0.09,0.01-0.33,0.03-0.7c0.02-0.37,0.03-0.68,0.03-0.92
						c0-1.09-0.23-1.64-0.68-1.64c-0.97,0-1.92,0.72-2.85,2.17c-0.93,1.45-1.66,3.28-2.19,5.51c-0.02,0.44-0.07,1.04-0.14,1.78
						c-0.06,0.61-0.1,1.2-0.1,1.78c0,0.38-0.04,0.95-0.11,1.71c-0.07,0.76-0.11,1.33-0.11,1.71c0,0.77-0.22,1.4-0.67,1.91
						c-0.45,0.51-1.01,0.76-1.69,0.76c-0.68,0-1.24-0.25-1.68-0.75c-0.44-0.5-0.66-1.14-0.66-1.9c0-0.38-0.03-0.94-0.1-1.7
						c-0.07-0.76-0.1-1.32-0.1-1.7c0-1.29,0.08-3.07,0.24-5.36c0.16-2.29,0.24-4.08,0.24-5.36c0-0.4-0.02-1-0.06-1.8
						S168,26.3,168,25.92c0-0.75,0.23-1.37,0.69-1.86c0.46-0.49,1.02-0.73,1.69-0.73c1.48,0,2.28,1.03,2.38,3.1l0.02,0.22
						c1.65-1.93,3.4-2.9,5.23-2.9c2.14,0,3.62,1.04,4.43,3.12c0.54,1.39,0.82,3.48,0.82,6.25v1.4c-0.01,0.61-0.02,1.03-0.02,1.28
						c0,1.03,0.12,2.35,0.37,3.97s0.37,2.93,0.37,3.95c0,0.74-0.23,1.35-0.68,1.83C182.83,46.02,182.27,46.27,181.6,46.27z"/>
					<linearGradient id="SVGID_6_" gradientUnits="userSpaceOnUse" x1="174.3099" y1="47.3124" x2="174.3099" y2="13.204">
						<stop  offset="0" style="stop-color:#0052D4"/>
						<stop  offset="1" style="stop-color:#6FB1FC"/>
					</linearGradient>
					<path class="st5" d="M201.3,33.46c0,0.88,0.01,2.21,0.02,3.98c0.01,1.78,0.02,3.1,0.02,3.98c0,0.28,0.02,0.69,0.06,1.23
						c0.04,0.55,0.06,0.96,0.06,1.23c0,0.74-0.23,1.34-0.69,1.82c-0.46,0.48-1.02,0.72-1.69,0.72c-0.94,0-1.63-0.49-2.05-1.48
						c-1.45,0.62-2.95,0.93-4.5,0.93c-1.61,0-2.96-0.39-4.06-1.18c-1.23-0.9-1.97-2.22-2.21-3.94c-0.44-3.27-0.66-6.19-0.66-8.77
						c0-1.7,0.17-3.64,0.51-5.83c0.23-1.48,0.99-2.22,2.29-2.22c0.66,0,1.22,0.24,1.68,0.71s0.7,1.08,0.7,1.81
						c0,0.57-0.08,1.48-0.25,2.7c-0.17,1.23-0.25,2.16-0.25,2.8c0,1.84,0.05,3.45,0.16,4.83c0.11,1.38,0.27,2.52,0.48,3.42
						c0.28,0.14,0.56,0.25,0.82,0.33c0.27,0.08,0.52,0.12,0.77,0.12c1.26,0,2.64-0.21,4.14-0.63c0-1.01-0.01-2.16-0.02-3.45
						c-0.02-1.54-0.03-2.64-0.03-3.31c0-2.7,0.11-5.02,0.32-6.98c0.17-1.56,0.94-2.35,2.31-2.35c0.67,0,1.24,0.24,1.71,0.73
						c0.48,0.49,0.7,1.1,0.66,1.83C201.4,31.53,201.3,33.85,201.3,33.46z"/>
					<linearGradient id="SVGID_7_" gradientUnits="userSpaceOnUse" x1="174.3099" y1="47.3124" x2="174.3099" y2="13.204">
						<stop  offset="0" style="stop-color:#0052D4"/>
						<stop  offset="1" style="stop-color:#6FB1FC"/>
					</linearGradient>
					<path class="st6" d="M213.06,45.77c-2.71,0-4.92-0.75-6.64-2.25c-1.9-1.66-2.85-3.99-2.85-7c0-3.33,0.75-6.14,2.26-8.44
						c1.67-2.55,3.93-3.83,6.77-3.83c1.97,0,3.6,0.37,4.91,1.1c1.71,0.97,2.56,2.49,2.56,4.54c0,1.45-0.7,2.73-2.09,3.85
						c-0.63,0.51-1.91,1.26-3.82,2.25l-5.72,2.94c0.54,0.68,1.2,1.2,1.97,1.54c0.77,0.34,1.65,0.51,2.65,0.51
						c1.52,0,2.8-0.36,3.85-1.08c0.94-0.64,1.69-0.97,2.26-0.97c1.18,0,1.77,0.66,1.77,1.99c0,1.5-0.94,2.72-2.83,3.67
						C216.52,45.38,214.84,45.77,213.06,45.77z M212.6,29.03c-1.05,0-1.95,0.41-2.7,1.22c-0.75,0.82-1.35,2.04-1.8,3.67
						c1.28-0.64,2.55-1.28,3.82-1.91c1.53-0.8,2.75-1.54,3.65-2.23C214.81,29.28,213.82,29.03,212.6,29.03z"/>
					<linearGradient id="SVGID_8_" gradientUnits="userSpaceOnUse" x1="174.3099" y1="47.3124" x2="174.3099" y2="13.204">
						<stop  offset="0" style="stop-color:#0052D4"/>
						<stop  offset="1" style="stop-color:#6FB1FC"/>
					</linearGradient>
					<path class="st7" d="M229.17,41.97c0,2.5-0.78,3.75-2.34,3.75c-0.68,0-1.24-0.25-1.68-0.75s-0.66-1.14-0.66-1.93V15.75
						c0-0.76,0.24-1.39,0.71-1.87c0.45-0.45,1.01-0.67,1.68-0.67c0.67,0,1.22,0.23,1.65,0.7c0.43,0.47,0.65,1.08,0.65,1.84V41.97z"
						/>
					<linearGradient id="SVGID_9_" gradientUnits="userSpaceOnUse" x1="174.3099" y1="47.3124" x2="174.3099" y2="13.204">
						<stop  offset="0" style="stop-color:#0052D4"/>
						<stop  offset="1" style="stop-color:#6FB1FC"/>
					</linearGradient>
					<path class="st8" d="M253.82,33.86c-0.19,0-0.67-0.05-1.43-0.14c-0.07,1.84-0.1,4.87-0.1,9.07c0,0.7-0.21,1.3-0.63,1.79
						c-0.42,0.5-0.95,0.75-1.6,0.75c-0.65,0-1.18-0.25-1.6-0.75c-0.42-0.5-0.64-1.1-0.64-1.79v-5.5c0-2.04,0.11-5.06,0.34-9.05
						c0.21-4.06,0.33-7.1,0.34-9.09c0.01-3.42,0.84-5.06,2.48-4.91c0.38-0.12,0.92-0.21,1.6-0.27c0.68-0.06,1.5-0.09,2.48-0.09
						c2.22,0,4.3,0.83,6.25,2.51c2.16,1.87,3.24,4.14,3.24,6.83c0,3.37-1.15,6.04-3.45,8.03C259.07,32.98,256.64,33.86,253.82,33.86
						z M254.67,18.96c-0.36,0-0.68,0-0.96,0.01c-0.28,0.01-0.51,0.02-0.71,0.05c0,0.62-0.01,1.55-0.02,2.78
						c-0.02,1.46-0.13,3.74-0.32,6.83c0.58,0.11,0.96,0.16,1.15,0.16c1.77,0,3.23-0.49,4.4-1.46c1.25-1.04,1.87-2.41,1.87-4.12
						c0-1.12-0.58-2.11-1.75-2.98C257.22,19.39,256,18.96,254.67,18.96z"/>
					<linearGradient id="SVGID_10_" gradientUnits="userSpaceOnUse" x1="174.3099" y1="47.3124" x2="174.3099" y2="13.204">
						<stop  offset="0" style="stop-color:#0052D4"/>
						<stop  offset="1" style="stop-color:#6FB1FC"/>
					</linearGradient>
					<path class="st9" d="M272.82,46.92c-0.76,0-1.42-0.27-1.97-0.82c-0.55-0.55-0.83-1.16-0.83-1.84c0-0.7,0.28-1.33,0.83-1.88
						c0.55-0.56,1.21-0.84,1.97-0.84c0.8,0,1.46,0.26,1.99,0.79c0.52,0.53,0.78,1.17,0.78,1.93c0,0.7-0.27,1.31-0.81,1.85
						C274.23,46.65,273.58,46.92,272.82,46.92z"/>
				</g>
			</g>
			<text transform="matrix(0.8606 0 0 1 72.3008 64.2646)" class="st10 st11 st12 st13">Developer Front-end</text>
		</g>
		<g>
			<g>
				<linearGradient id="SVGID_11_" gradientUnits="userSpaceOnUse" x1="13.3842" y1="80.2645" x2="13.3842" y2="55.0961">
					<stop  offset="0" style="stop-color:#0052D4"/>
					<stop  offset="1" style="stop-color:#6FB1FC"/>
				</linearGradient>
				<polygon class="st14" points="21.82,80.26 0,54.91 21.82,29.56 26.77,35.32 9.9,54.91 26.77,74.51 				"/>
			</g>
			<g>
				<linearGradient id="SVGID_12_" gradientUnits="userSpaceOnUse" x1="42.9699" y1="70.4509" x2="42.9699" y2="35.0025">
					<stop  offset="0" style="stop-color:#0052D4"/>
					<stop  offset="1" style="stop-color:#6FB1FC"/>
				</linearGradient>
				<polygon class="st15" points="30.29,70.45 25.34,64.7 50.7,35.23 25.34,5.75 30.29,0 60.6,35.23 				"/>
			</g>
			<linearGradient id="SVGID_13_" gradientUnits="userSpaceOnUse" x1="42.9699" y1="35.2254" x2="42.9699" y2="0">
				<stop  offset="0" style="stop-color:#0052D4"/>
				<stop  offset="1" style="stop-color:#6FB1FC"/>
			</linearGradient>
			<polygon class="st16" points="60.6,35.23 50.7,35.23 25.34,5.75 30.29,0 			"/>
			<linearGradient id="SVGID_14_" gradientUnits="userSpaceOnUse" x1="13.3842" y1="54.9133" x2="13.3842" y2="29.5621">
				<stop  offset="0" style="stop-color:#0052D4"/>
				<stop  offset="1" style="stop-color:#6FB1FC"/>
			</linearGradient>
			<polygon class="st17" points="9.9,54.91 0,54.91 21.82,29.56 26.77,35.32 			"/>
		</g>
	</g>
</g>
</svg>
