<?xml version="1.0" encoding="UTF-8"?>
<svg xmlns="http://www.w3.org/2000/svg" xmlns:xlink="http://www.w3.org/1999/xlink" width="900pt" height="650pt" viewBox="0 0 900 650" version="1.1">
<defs>
<clipPath id="clip1">
  <path d="M 12 16 L 888 16 L 888 633 L 12 633 Z M 12 16 "/>
</clipPath>
<clipPath id="clip2">
  <path d="M 12.660156 324.660156 C 12.660156 494.613281 208.523438 632.390625 450.125 632.390625 C 691.730469 632.390625 887.597656 494.613281 887.597656 324.660156 C 887.597656 154.707031 691.730469 16.925781 450.125 16.925781 C 208.523438 16.925781 12.660156 154.707031 12.660156 324.660156 "/>
</clipPath>
<radialGradient id="radial0" gradientUnits="userSpaceOnUse" cx="0" cy="0" fx="0" fy="0" r="1" gradientTransform="matrix(574.458687,0,0,768.188895,275.316487,125.116261)">
<stop offset="0" style="stop-color:rgb(68.235294%,69.803922%,83.529412%);stop-opacity:1;"/>
<stop offset="0.3" style="stop-color:rgb(68.235294%,69.803922%,83.529412%);stop-opacity:1;"/>
<stop offset="0.75" style="stop-color:rgb(28.235294%,29.803922%,53.72549%);stop-opacity:1;"/>
<stop offset="1" style="stop-color:rgb(28.235294%,29.803922%,53.72549%);stop-opacity:1;"/>
</radialGradient>
</defs>
<g id="surface1">
<g clip-path="url(#clip1)" clip-rule="nonzero">
<g clip-path="url(#clip2)" clip-rule="nonzero">
<path style=" stroke:none;fill-rule:nonzero;fill:url(#radial0);" d="M 12.660156 324.660156 C 12.660156 494.613281 208.523438 632.390625 450.125 632.390625 C 691.730469 632.390625 887.597656 494.613281 887.597656 324.660156 C 887.597656 154.707031 691.730469 16.925781 450.125 16.925781 C 208.523438 16.925781 12.660156 154.707031 12.660156 324.660156 "/>
</g>
</g>
<path style=" stroke:none;fill-rule:nonzero;fill:rgb(46.666667%,48.235294%,70.196078%);fill-opacity:1;" d="M 450.125 609.542969 C 682.292969 609.542969 870.507812 481.996094 870.507812 324.660156 C 870.507812 167.324219 682.292969 39.773438 450.125 39.773438 C 217.960938 39.773438 29.746094 167.324219 29.746094 324.660156 C 29.746094 481.996094 217.960938 609.542969 450.125 609.542969 "/>
<path style=" stroke:none;fill-rule:nonzero;fill:rgb(0%,0%,0%);fill-opacity:1;" d="M 250.339844 359.980469 C 269.429688 359.980469 283.679688 355.273438 292.699219 345.992188 C 301.621094 336.808594 307.78125 320.894531 311.011719 298.695312 C 314.019531 277.949219 312.875 263.460938 307.601562 255.640625 C 302.210938 247.65625 290.554688 243.605469 272.960938 243.605469 L 242.453125 243.605469 L 225.539062 359.980469 Z M 150.554688 503.332031 C 149.140625 503.332031 147.796875 502.484375 146.894531 501.019531 C 145.992188 499.558594 145.628906 497.632812 145.898438 495.773438 L 190.71875 187.382812 C 191.152344 184.398438 193.109375 182.246094 195.378906 182.246094 L 291.984375 182.246094 C 322.34375 182.246094 344.945312 193.269531 359.148438 215.015625 C 373.429688 236.875 377.835938 267.429688 372.253906 305.832031 C 369.980469 321.476562 366.074219 336.003906 360.636719 349.015625 C 355.195312 362.039062 348.003906 374.085938 339.261719 384.835938 C 328.792969 397.9375 316.945312 407.4375 304.078125 413.027344 C 291.414062 418.542969 275.152344 421.339844 255.742188 421.339844 L 216.625 421.339844 L 205.453125 498.195312 C 205.019531 501.179688 203.066406 503.332031 200.796875 503.332031 Z M 150.554688 503.332031 "/>
<path style=" stroke:none;fill-rule:nonzero;fill:rgb(100%,100%,100%);fill-opacity:1;" d="M 246.367188 249.953125 L 272.960938 249.953125 C 294.195312 249.953125 301.574219 256.183594 304.078125 259.898438 C 308.238281 266.0625 309.023438 279.0625 306.351562 297.492188 C 303.347656 318.121094 297.78125 332.75 289.804688 340.960938 C 281.636719 349.371094 268.355469 353.632812 250.339844 353.632812 L 231.296875 353.632812 Z M 291.984375 175.898438 L 195.378906 175.898438 C 190.835938 175.898438 186.929688 180.207031 186.0625 186.171875 L 141.238281 494.5625 C 140.695312 498.285156 141.429688 502.132812 143.230469 505.058594 C 145.035156 507.984375 147.722656 509.679688 150.554688 509.679688 L 200.792969 509.679688 C 205.339844 509.679688 209.246094 505.371094 210.113281 499.40625 L 220.539062 427.6875 L 255.742188 427.6875 C 275.648438 427.6875 292.410156 424.785156 305.550781 419.0625 C 319.0625 413.191406 331.496094 403.234375 342.503906 389.472656 C 351.605469 378.277344 359.101562 365.707031 364.78125 352.113281 C 370.464844 338.515625 374.546875 323.347656 376.914062 307.039062 C 382.792969 266.617188 378.015625 234.25 362.722656 210.839844 C 347.578125 187.652344 323.777344 175.898438 291.984375 175.898438 M 219.78125 366.328125 L 250.339844 366.328125 C 270.59375 366.328125 285.679688 361.226562 295.59375 351.019531 C 305.507812 340.8125 312.195312 323.777344 315.671875 299.90625 C 318.996094 276.988281 317.480469 260.8125 311.128906 251.390625 C 304.765625 241.96875 292.046875 237.257812 272.960938 237.257812 L 238.539062 237.257812 L 219.78125 366.328125 M 291.984375 188.59375 C 321.046875 188.59375 342.246094 198.792969 355.574219 219.191406 C 368.898438 239.589844 372.910156 268.0625 367.59375 304.621094 C 365.40625 319.679688 361.703125 333.445312 356.496094 345.917969 C 351.277344 358.402344 344.464844 369.8125 336.046875 380.164062 C 326.015625 392.714844 314.871094 401.664062 302.609375 406.992188 C 290.347656 412.332031 274.730469 414.992188 255.742188 414.992188 L 212.710938 414.992188 L 200.792969 496.984375 L 150.554688 496.984375 L 195.378906 188.59375 L 291.984375 188.59375 "/>
<path style=" stroke:none;fill-rule:nonzero;fill:rgb(0%,0%,0%);fill-opacity:1;" d="M 487.441406 421.339844 C 486.023438 421.339844 484.679688 420.496094 483.78125 419.03125 C 482.875 417.570312 482.511719 415.644531 482.78125 413.785156 L 502.609375 277.332031 C 504.496094 264.355469 504.03125 255.042969 501.300781 251.105469 C 499.628906 248.699219 494.609375 244.664062 479.769531 244.664062 L 443.851562 244.664062 L 418.921875 416.203125 C 418.488281 419.1875 416.535156 421.339844 414.261719 421.339844 L 364.417969 421.339844 C 363 421.339844 361.660156 420.496094 360.757812 419.03125 C 359.855469 417.570312 359.488281 415.644531 359.757812 413.785156 L 404.582031 105.390625 C 405.015625 102.410156 406.96875 100.253906 409.242188 100.253906 L 459.082031 100.253906 C 460.5 100.253906 461.84375 101.101562 462.746094 102.5625 C 463.648438 104.027344 464.015625 105.953125 463.742188 107.8125 L 452.925781 182.246094 L 491.570312 182.246094 C 521.007812 182.246094 540.96875 189.1875 552.597656 203.464844 C 564.449219 218.03125 568.144531 241.320312 563.589844 272.695312 L 542.734375 416.203125 C 542.300781 419.1875 540.347656 421.339844 538.074219 421.339844 Z M 487.441406 421.339844 "/>
<path style=" stroke:none;fill-rule:nonzero;fill:rgb(100%,100%,100%);fill-opacity:1;" d="M 459.085938 93.90625 L 409.242188 93.90625 C 404.695312 93.90625 400.789062 98.214844 399.921875 104.179688 L 355.101562 412.570312 C 354.558594 416.292969 355.289062 420.144531 357.09375 423.070312 C 358.898438 425.996094 361.585938 427.6875 364.417969 427.6875 L 414.261719 427.6875 C 418.804688 427.6875 422.714844 423.378906 423.582031 417.414062 L 447.761719 251.011719 L 479.769531 251.011719 C 494.585938 251.011719 497.695312 255.242188 497.820312 255.425781 C 498.71875 256.71875 499.902344 262.707031 497.949219 276.121094 L 478.121094 412.570312 C 477.582031 416.292969 478.3125 420.144531 480.117188 423.070312 C 481.917969 425.996094 484.605469 427.6875 487.441406 427.6875 L 538.074219 427.6875 C 542.617188 427.6875 546.527344 423.378906 547.394531 417.414062 L 568.246094 273.90625 C 573.140625 240.21875 568.953125 214.949219 555.808594 198.792969 C 543.265625 183.386719 522.25 175.898438 491.570312 175.898438 L 458.683594 175.898438 L 468.402344 109.023438 C 468.941406 105.304688 468.214844 101.453125 466.410156 98.527344 C 464.605469 95.601562 461.917969 93.90625 459.085938 93.90625 M 459.085938 106.601562 L 447.167969 188.59375 L 491.570312 188.59375 C 519.507812 188.59375 538.777344 195.113281 549.382812 208.140625 C 559.992188 221.171875 563.167969 242.292969 558.929688 271.484375 L 538.074219 414.992188 L 487.441406 414.992188 L 507.269531 278.542969 C 509.527344 263.019531 508.695312 252.433594 504.777344 246.789062 C 500.859375 241.144531 492.523438 238.316406 479.769531 238.316406 L 439.933594 238.316406 L 414.261719 414.992188 L 364.417969 414.992188 L 409.242188 106.601562 L 459.085938 106.601562 "/>
<path style=" stroke:none;fill-rule:nonzero;fill:rgb(0%,0%,0%);fill-opacity:1;" d="M 642.453125 359.980469 C 661.542969 359.980469 675.792969 355.273438 684.8125 345.992188 C 693.730469 336.808594 699.894531 320.894531 703.125 298.695312 C 706.136719 277.949219 704.988281 263.460938 699.714844 255.640625 C 694.324219 247.65625 682.667969 243.605469 665.074219 243.605469 L 634.566406 243.605469 L 617.652344 359.980469 Z M 542.671875 503.332031 C 541.253906 503.332031 539.910156 502.484375 539.007812 501.019531 C 538.105469 499.558594 537.738281 497.632812 538.011719 495.773438 L 582.832031 187.382812 C 583.269531 184.398438 585.222656 182.246094 587.496094 182.246094 L 684.097656 182.246094 C 714.460938 182.246094 737.058594 193.269531 751.261719 215.015625 C 765.542969 236.871094 769.949219 267.425781 764.367188 305.832031 C 762.09375 321.476562 758.1875 336.003906 752.75 349.015625 C 747.308594 362.039062 740.117188 374.085938 731.375 384.835938 C 720.90625 397.9375 709.058594 407.4375 696.191406 413.027344 C 683.527344 418.542969 667.265625 421.339844 647.855469 421.339844 L 608.734375 421.339844 L 597.570312 498.195312 C 597.132812 501.179688 595.183594 503.332031 592.90625 503.332031 Z M 542.671875 503.332031 "/>
<path style=" stroke:none;fill-rule:nonzero;fill:rgb(100%,100%,100%);fill-opacity:1;" d="M 638.480469 249.953125 L 665.074219 249.953125 C 686.308594 249.953125 693.6875 256.183594 696.191406 259.898438 C 700.351562 266.0625 701.136719 279.0625 698.464844 297.488281 C 695.460938 318.121094 689.890625 332.75 681.917969 340.960938 C 673.75 349.371094 660.46875 353.632812 642.453125 353.632812 L 623.414062 353.632812 Z M 684.097656 175.898438 L 587.492188 175.898438 C 582.949219 175.898438 579.042969 180.207031 578.175781 186.171875 L 533.351562 494.5625 C 532.8125 498.285156 533.542969 502.132812 535.34375 505.058594 C 537.148438 507.984375 539.835938 509.679688 542.671875 509.679688 L 592.910156 509.679688 C 597.453125 509.679688 601.359375 505.371094 602.226562 499.40625 L 612.652344 427.6875 L 647.855469 427.6875 C 667.761719 427.6875 684.523438 424.785156 697.664062 419.0625 C 711.175781 413.191406 723.613281 403.234375 734.617188 389.46875 C 743.71875 378.273438 751.214844 365.707031 756.894531 352.113281 C 762.574219 338.515625 766.660156 323.347656 769.027344 307.039062 C 774.90625 266.617188 770.128906 234.246094 754.835938 210.835938 C 739.691406 187.652344 715.890625 175.898438 684.097656 175.898438 M 611.894531 366.328125 L 642.453125 366.328125 C 662.707031 366.328125 677.792969 361.226562 687.707031 351.019531 C 697.625 340.8125 704.308594 323.777344 707.785156 299.90625 C 711.109375 276.988281 709.59375 260.8125 703.242188 251.390625 C 696.878906 241.96875 684.160156 237.257812 665.074219 237.257812 L 630.652344 237.257812 L 611.894531 366.328125 M 684.097656 188.59375 C 713.160156 188.59375 734.359375 198.792969 747.6875 219.191406 C 761.011719 239.589844 765.023438 268.0625 759.707031 304.621094 C 757.519531 319.679688 753.816406 333.445312 748.609375 345.917969 C 743.390625 358.402344 736.578125 369.8125 728.160156 380.164062 C 718.128906 392.714844 706.984375 401.664062 694.722656 406.992188 C 682.460938 412.332031 666.84375 414.992188 647.855469 414.992188 L 604.824219 414.992188 L 592.910156 496.984375 L 542.671875 496.984375 L 587.492188 188.59375 L 684.097656 188.59375 "/>
</g>
</svg>
