<?xml version="1.0" encoding="UTF-8"?>
<svg xmlns="http://www.w3.org/2000/svg" xmlns:xlink="http://www.w3.org/1999/xlink" width="900pt" height="650pt" viewBox="0 0 900 650" version="1.1">
<g id="surface1">
<path style=" stroke:none;fill-rule:nonzero;fill:rgb(100%,100%,100%);fill-opacity:1;" d="M 358.898438 261.058594 L 534.992188 261.058594 L 534.992188 397.289062 L 358.898438 397.289062 Z M 358.898438 261.058594 "/>
<path style=" stroke:none;fill-rule:evenodd;fill:rgb(36.470588%,52.941176%,63.137255%);fill-opacity:1;" d="M 467.550781 295.265625 C 466.96875 295.265625 466.558594 295.347656 466.140625 295.453125 L 466.140625 295.527344 L 466.207031 295.527344 C 466.484375 296.144531 466.964844 296.570312 467.308594 297.105469 C 467.589844 297.71875 467.824219 298.335938 468.101562 298.941406 C 468.140625 298.902344 468.167969 298.867188 468.167969 298.867188 C 468.65625 298.484375 468.898438 297.875 468.898438 296.949219 C 468.691406 296.675781 468.65625 296.414062 468.484375 296.144531 C 468.273438 295.765625 467.824219 295.570312 467.550781 295.265625 "/>
<path style=" stroke:none;fill-rule:nonzero;fill:rgb(0%,45.882353%,56.078431%);fill-opacity:1;" d="M 412.800781 371.082031 L 408.035156 371.082031 C 407.867188 362.105469 407.40625 353.660156 406.648438 345.746094 L 406.601562 345.746094 L 399.34375 371.082031 L 395.714844 371.082031 L 388.5 345.746094 L 388.457031 345.746094 C 387.917969 353.347656 387.582031 361.792969 387.441406 371.082031 L 383.09375 371.082031 C 383.375 359.78125 384.082031 349.1875 385.207031 339.289062 L 391.117188 339.289062 L 397.992188 362.644531 L 398.035156 362.644531 L 404.957031 339.289062 L 410.609375 339.289062 C 411.84375 350.875 412.574219 361.480469 412.800781 371.082031 "/>
<path style=" stroke:none;fill-rule:nonzero;fill:rgb(0%,45.882353%,56.078431%);fill-opacity:1;" d="M 433.46875 347.636719 C 431.53125 359.386719 428.96875 367.929688 425.792969 373.265625 C 423.316406 377.371094 420.601562 379.429688 417.648438 379.429688 C 416.859375 379.429688 415.890625 379.167969 414.734375 378.640625 L 414.734375 375.808594 C 415.300781 375.898438 415.957031 375.949219 416.71875 375.949219 C 418.09375 375.949219 419.207031 375.523438 420.050781 374.675781 C 421.066406 373.644531 421.566406 372.476562 421.566406 371.1875 C 421.566406 370.3125 421.167969 368.503906 420.382812 365.773438 L 415.148438 347.644531 L 419.832031 347.644531 L 423.589844 361.203125 C 424.433594 364.277344 424.785156 366.429688 424.640625 367.652344 C 426.691406 361.53125 428.125 354.855469 428.941406 347.636719 Z M 433.46875 347.636719 "/>
<path style=" stroke:none;fill-rule:nonzero;fill:rgb(94.901961%,56.862745%,6.666667%);fill-opacity:1;" d="M 496.933594 371.082031 L 483.390625 371.082031 L 483.390625 339.296875 L 487.949219 339.296875 L 487.949219 367.175781 L 496.933594 367.175781 Z M 496.933594 371.082031 "/>
<path style=" stroke:none;fill-rule:evenodd;fill:rgb(94.901961%,56.862745%,6.666667%);fill-opacity:1;" d="M 479.84375 371.855469 L 474.609375 368.972656 C 475.074219 368.546875 475.523438 368.085938 475.917969 367.554688 C 478.140625 364.640625 479.257812 360.324219 479.257812 354.601562 C 479.257812 344.089844 475.558594 338.820312 468.160156 338.820312 C 464.535156 338.820312 461.707031 340.160156 459.675781 342.824219 C 457.457031 345.746094 456.34375 350.046875 456.34375 355.726562 C 456.34375 361.316406 457.332031 365.410156 459.300781 368.019531 C 461.101562 370.375 463.816406 371.550781 467.449219 371.550781 C 468.800781 371.550781 470.042969 371.363281 471.175781 370.992188 L 477.992188 375.425781 Z M 462.882812 364.722656 C 461.726562 362.652344 461.15625 359.320312 461.15625 354.742188 C 461.15625 346.742188 463.339844 342.734375 467.691406 342.734375 C 469.96875 342.734375 471.648438 343.695312 472.714844 345.609375 C 473.867188 347.683594 474.441406 350.976562 474.441406 355.496094 C 474.441406 363.566406 472.257812 367.601562 467.90625 367.601562 C 465.625 367.601562 463.949219 366.644531 462.882812 364.722656 "/>
<path style=" stroke:none;fill-rule:nonzero;fill:rgb(94.901961%,56.862745%,6.666667%);fill-opacity:1;" d="M 454.351562 362.277344 C 454.351562 364.976562 453.464844 367.183594 451.699219 368.917969 C 449.925781 370.640625 447.550781 371.5 444.574219 371.5 C 441.785156 371.5 439.089844 370.507812 436.46875 368.53125 L 437.691406 365.796875 C 439.941406 367.054688 441.976562 367.675781 443.808594 367.675781 C 445.523438 367.675781 446.867188 367.25 447.839844 366.414062 C 448.808594 365.566406 449.390625 364.386719 449.390625 362.882812 C 449.390625 360.996094 448.214844 359.378906 446.042969 358.035156 C 444.042969 356.8125 440.050781 354.257812 440.050781 354.257812 C 437.890625 352.492188 436.800781 350.605469 436.800781 347.496094 C 436.800781 344.917969 437.609375 342.84375 439.226562 341.257812 C 440.84375 339.675781 442.933594 338.878906 445.492188 338.878906 C 448.140625 338.878906 450.542969 339.667969 452.707031 341.234375 L 451.601562 343.957031 C 449.75 343.082031 447.925781 342.644531 446.117188 342.644531 C 444.65625 342.644531 443.53125 343.039062 442.742188 343.828125 C 441.957031 344.605469 441.464844 345.617188 441.464844 346.839844 C 441.464844 348.71875 442.667969 350.351562 444.890625 351.730469 C 446.910156 352.953125 451 355.5625 451 355.5625 C 453.25 357.3125 454.351562 359.183594 454.351562 362.277344 "/>
<path style=" stroke:none;fill-rule:evenodd;fill:rgb(0%,45.882353%,56.078431%);fill-opacity:1;" d="M 502.65625 328.644531 C 499.898438 328.570312 497.765625 328.875 495.976562 329.71875 C 495.464844 329.949219 494.640625 329.949219 494.566406 330.679688 C 494.84375 330.984375 494.875 331.484375 495.117188 331.910156 C 495.53125 332.683594 496.25 333.714844 496.90625 334.25 C 497.625 334.863281 498.351562 335.480469 499.109375 336.015625 C 500.449219 336.941406 501.964844 337.476562 503.273438 338.394531 C 504.03125 338.925781 504.785156 339.625 505.542969 340.199219 C 505.917969 340.503906 506.160156 341.003906 506.648438 341.191406 L 506.648438 341.078125 C 506.40625 340.734375 506.339844 340.230469 506.09375 339.847656 C 505.75 339.46875 505.40625 339.117188 505.058594 338.738281 C 504.058594 337.238281 502.824219 335.933594 501.476562 334.855469 C 500.375 334.011719 497.964844 332.855469 497.523438 331.441406 C 497.523438 331.441406 497.484375 331.402344 497.457031 331.359375 C 498.214844 331.285156 499.109375 330.976562 499.832031 330.746094 C 501 330.398438 502.066406 330.472656 503.273438 330.128906 C 503.824219 329.972656 504.375 329.785156 504.925781 329.597656 L 504.925781 329.25 C 504.300781 328.5625 503.859375 327.632812 503.207031 326.984375 C 501.457031 325.296875 499.523438 323.644531 497.53125 322.257812 C 496.464844 321.488281 495.082031 320.996094 493.949219 320.339844 C 493.535156 320.109375 492.851562 319.992188 492.609375 319.609375 C 491.992188 318.761719 491.648438 317.65625 491.199219 316.652344 C 490.199219 314.542969 489.234375 312.207031 488.375 309.972656 C 487.757812 308.480469 487.375 306.976562 486.617188 305.597656 C 483.074219 299.066406 479.21875 295.109375 473.300781 291.234375 C 472.03125 290.433594 470.515625 290.078125 468.898438 289.660156 C 468.035156 289.621094 467.175781 289.546875 466.316406 289.503906 C 465.765625 289.234375 465.214844 288.503906 464.734375 288.160156 C 462.773438 286.78125 457.714844 283.785156 456.273438 287.738281 C 455.34375 290.234375 457.648438 292.695312 458.441406 293.960938 C 459.023438 294.847656 459.785156 295.839844 460.191406 296.839844 C 460.433594 297.5 460.5 298.1875 460.742188 298.875 C 461.292969 300.566406 461.808594 302.445312 462.53125 304.023438 C 462.90625 304.828125 463.316406 305.671875 463.800781 306.402344 C 464.082031 306.828125 464.558594 307.019531 464.660156 307.707031 C 464.183594 308.472656 464.148438 309.628906 463.867188 310.589844 C 462.632812 314.929688 463.109375 320.304688 464.867188 323.5 C 465.417969 324.457031 466.726562 326.574219 468.484375 325.761719 C 470.035156 325.074219 469.691406 322.882812 470.140625 320.960938 C 470.242188 320.496094 470.175781 320.191406 470.382812 319.886719 L 470.382812 319.960938 C 470.859375 321.035156 471.34375 322.070312 471.792969 323.144531 C 472.859375 325.023438 474.71875 326.984375 476.273438 328.292969 C 477.09375 328.988281 477.75 330.171875 478.78125 330.597656 L 478.78125 330.480469 L 478.714844 330.480469 C 478.507812 330.136719 478.199219 329.980469 477.917969 329.71875 C 477.300781 329.03125 476.609375 328.183594 476.132812 327.414062 C 474.691406 325.261719 473.410156 322.882812 472.28125 320.421875 C 471.726562 319.230469 471.25 317.925781 470.800781 316.734375 C 470.59375 316.277344 470.59375 315.585938 470.25 315.355469 C 469.734375 316.203125 468.976562 316.933594 468.59375 317.964844 C 467.941406 319.617188 467.875 321.660156 467.632812 323.769531 C 467.492188 323.808594 467.566406 323.769531 467.492188 323.84375 C 466.390625 323.539062 466.015625 322.265625 465.601562 321.199219 C 464.574219 318.46875 464.398438 314.09375 465.292969 310.941406 C 465.535156 310.136719 466.566406 307.601562 466.15625 306.828125 C 465.949219 306.097656 465.257812 305.679688 464.882812 305.097656 C 464.433594 304.367188 463.949219 303.449219 463.648438 302.636719 C 462.824219 300.484375 462.40625 298.105469 461.515625 295.957031 C 461.101562 294.953125 460.375 293.917969 459.792969 293 C 459.140625 291.964844 458.417969 291.234375 457.898438 290.003906 C 457.726562 289.578125 457.484375 288.890625 457.757812 288.429688 C 457.824219 288.117188 457.964844 288.003906 458.242188 287.929688 C 458.691406 287.511719 459.964844 288.042969 460.410156 288.273438 C 461.683594 288.847656 462.75 289.390625 463.816406 290.195312 C 464.300781 290.578125 464.816406 291.308594 465.433594 291.5 L 466.15625 291.5 C 467.257812 291.761719 468.492188 291.574219 469.53125 291.917969 C 471.351562 292.574219 473 293.535156 474.484375 294.566406 C 478.992188 297.761719 482.707031 302.292969 485.21875 307.707031 C 485.632812 308.585938 485.808594 309.398438 486.183594 310.316406 C 486.90625 312.207031 487.800781 314.125 488.523438 315.964844 C 489.242188 317.769531 489.933594 319.609375 490.96875 321.109375 C 491.484375 321.914062 493.550781 322.339844 494.476562 322.757812 C 495.160156 323.105469 496.234375 323.40625 496.851562 323.835938 C 498.023438 324.640625 499.191406 325.566406 500.292969 326.445312 C 500.824219 326.921875 502.542969 327.871094 502.65625 328.644531 "/>
<path style=" stroke:none;fill-rule:nonzero;fill:rgb(94.901961%,56.862745%,6.666667%);fill-opacity:1;" d="M 505.933594 371.082031 L 506.648438 371.082031 L 506.648438 367.183594 L 505.574219 367.183594 L 504.699219 369.84375 L 503.75 367.183594 L 502.71875 367.183594 L 502.71875 371.082031 L 503.398438 371.082031 L 503.398438 368.121094 L 503.433594 368.121094 L 504.425781 371.082031 L 504.941406 371.082031 L 505.933594 368.121094 Z M 500.183594 371.082031 L 500.941406 371.082031 L 500.941406 367.847656 L 501.925781 367.847656 L 501.925781 367.183594 L 499.15625 367.183594 L 499.15625 367.847656 L 500.183594 367.847656 Z M 500.183594 371.082031 "/>
</g>
</svg>
