<?xml version="1.0" encoding="UTF-8"?>
<svg xmlns="http://www.w3.org/2000/svg" xmlns:xlink="http://www.w3.org/1999/xlink" width="900pt" height="650pt" viewBox="0 0 900 650" version="1.1">
<g id="surface1">
<path style=" stroke:none;fill-rule:nonzero;fill:rgb(100%,100%,100%);fill-opacity:1;" d="M 0.269531 650 L 0.269531 0 L 899.730469 0 L 899.730469 650 "/>
<path style=" stroke:none;fill-rule:evenodd;fill:rgb(40.784314%,49.411765%,56.862745%);fill-opacity:1;" d="M 517.386719 75.144531 C 514.40625 75.144531 512.300781 75.515625 510.175781 76.0625 L 510.175781 76.433594 L 510.519531 76.433594 C 511.9375 79.359375 514.398438 81.390625 516.148438 83.957031 C 517.570312 86.894531 518.796875 89.8125 520.199219 92.746094 C 520.367188 92.574219 520.539062 92.375 520.539062 92.375 C 523.019531 90.554688 524.246094 87.617188 524.246094 83.214844 C 523.1875 81.925781 523.019531 80.648438 522.132812 79.371094 C 521.085938 77.527344 518.796875 76.609375 517.386719 75.144531 "/>
<path style=" stroke:none;fill-rule:nonzero;fill:rgb(2.745098%,46.27451%,56.470588%);fill-opacity:1;" d="M 237.730469 436.898438 L 213.378906 436.898438 C 212.527344 394.054688 210.152344 353.761719 206.265625 316.011719 L 206.050781 316.011719 L 168.976562 436.898438 L 150.441406 436.898438 L 113.59375 316.011719 L 113.378906 316.011719 C 110.644531 352.265625 108.925781 392.558594 108.207031 436.898438 L 86.007812 436.898438 C 87.441406 382.96875 91.03125 332.414062 96.777344 285.222656 L 126.960938 285.222656 L 162.085938 396.675781 L 162.300781 396.675781 L 197.644531 285.222656 L 226.519531 285.222656 C 232.847656 340.496094 236.585938 391.0625 237.730469 436.898438 "/>
<path style=" stroke:none;fill-rule:nonzero;fill:rgb(2.745098%,46.27451%,56.470588%);fill-opacity:1;" d="M 343.339844 325 C 333.421875 381.09375 320.347656 421.855469 304.105469 447.285156 C 291.457031 466.875 277.601562 476.679688 262.515625 476.679688 C 258.488281 476.679688 253.53125 475.414062 247.644531 472.902344 L 247.644531 459.382812 C 250.515625 459.820312 253.894531 460.058594 257.773438 460.058594 C 264.8125 460.058594 270.484375 458.027344 274.800781 453.976562 C 279.972656 449.042969 282.558594 443.496094 282.558594 437.359375 C 282.558594 433.15625 280.539062 424.550781 276.523438 411.523438 L 249.800781 325 L 273.722656 325 L 292.898438 389.707031 C 297.207031 404.40625 299.011719 414.65625 298.285156 420.5 C 308.777344 391.289062 316.105469 359.449219 320.273438 325 Z M 343.339844 325 "/>
<path style=" stroke:none;fill-rule:nonzero;fill:rgb(94.901961%,57.254902%,7.843137%);fill-opacity:1;" d="M 667.472656 436.898438 L 598.296875 436.898438 L 598.296875 285.222656 L 621.578125 285.222656 L 621.578125 418.25 L 667.472656 418.25 Z M 667.472656 436.898438 "/>
<path style=" stroke:none;fill-rule:evenodd;fill:rgb(94.901961%,57.254902%,7.843137%);fill-opacity:1;" d="M 580.199219 440.570312 L 553.457031 426.820312 C 555.839844 424.78125 558.105469 422.585938 560.144531 420.039062 C 571.5 406.128906 577.175781 385.523438 577.175781 358.261719 C 577.175781 308.074219 558.285156 282.972656 520.496094 282.972656 C 501.960938 282.972656 487.515625 289.335938 477.175781 302.082031 C 465.816406 316.011719 460.144531 336.53125 460.144531 363.644531 C 460.144531 390.308594 465.164062 409.863281 475.230469 422.289062 C 484.429688 433.527344 498.296875 439.140625 516.832031 439.140625 C 523.753906 439.140625 530.101562 438.253906 535.882812 436.472656 L 570.699219 457.601562 Z M 493.550781 406.554688 C 487.65625 396.675781 484.707031 380.808594 484.707031 358.925781 C 484.707031 320.730469 495.847656 301.621094 518.113281 301.621094 C 529.761719 301.621094 538.308594 306.195312 543.765625 315.324219 C 549.652344 325.21875 552.601562 340.941406 552.601562 362.519531 C 552.601562 401.019531 541.457031 420.28125 519.195312 420.28125 C 507.558594 420.28125 499.011719 415.71875 493.550781 406.554688 "/>
<path style=" stroke:none;fill-rule:nonzero;fill:rgb(94.901961%,57.254902%,7.843137%);fill-opacity:1;" d="M 449.996094 394.859375 C 449.996094 407.722656 445.464844 418.28125 436.425781 426.550781 C 427.378906 434.769531 415.230469 438.898438 400.015625 438.898438 C 385.785156 438.898438 371.992188 434.148438 358.636719 424.734375 L 364.886719 411.710938 C 376.382812 417.703125 386.789062 420.695312 396.125 420.695312 C 404.886719 420.695312 411.746094 418.664062 416.703125 414.648438 C 421.652344 410.597656 424.621094 404.960938 424.621094 397.796875 C 424.621094 388.789062 418.59375 381.09375 407.546875 374.640625 C 397.34375 368.796875 376.949219 356.609375 376.949219 356.609375 C 365.902344 348.214844 360.359375 339.183594 360.359375 324.332031 C 360.359375 312.050781 364.492188 302.113281 372.738281 294.558594 C 381.007812 286.988281 391.683594 283.203125 404.75 283.203125 C 418.253906 283.203125 430.527344 286.957031 441.597656 294.449219 L 435.976562 307.464844 C 426.511719 303.28125 417.183594 301.183594 407.976562 301.183594 C 400.507812 301.183594 394.757812 303.050781 390.742188 306.820312 C 386.703125 310.542969 384.214844 315.347656 384.214844 321.1875 C 384.214844 330.175781 390.367188 337.960938 401.734375 344.546875 C 412.066406 350.386719 432.964844 362.8125 432.964844 362.8125 C 444.332031 371.1875 449.996094 380.132812 449.996094 394.859375 "/>
<path style=" stroke:none;fill-rule:evenodd;fill:rgb(2.745098%,46.27451%,56.470588%);fill-opacity:1;" d="M 696.683594 234.414062 C 682.613281 234.042969 671.726562 235.515625 662.582031 239.546875 C 659.941406 240.648438 655.734375 240.648438 655.371094 244.132812 C 656.78125 245.59375 656.949219 247.976562 658.191406 250.007812 C 660.292969 253.664062 663.980469 258.609375 667.324219 261.1875 C 671.011719 264.125 674.707031 267.039062 678.585938 269.605469 C 685.433594 274.019531 693.167969 276.574219 699.835938 280.984375 C 703.714844 283.550781 707.570312 286.835938 711.449219 289.601562 C 713.371094 291.0625 714.601562 293.453125 717.070312 294.359375 L 717.070312 293.804688 C 715.828125 292.15625 715.488281 289.773438 714.257812 287.929688 C 712.507812 286.105469 710.742188 284.445312 708.980469 282.621094 C 703.875 275.46875 697.550781 269.246094 690.699219 264.113281 C 685.070312 260.074219 672.761719 254.570312 670.488281 247.8125 C 670.488281 247.8125 670.304688 247.617188 670.132812 247.441406 C 674.003906 247.070312 678.585938 245.605469 682.269531 244.492188 C 688.242188 242.84375 693.691406 243.214844 699.835938 241.578125 C 702.65625 240.835938 705.464844 239.917969 708.285156 239.011719 L 708.285156 237.351562 C 705.101562 234.054688 702.828125 229.652344 699.492188 226.542969 C 690.539062 218.484375 680.679688 210.609375 670.488281 204.003906 C 665.027344 200.335938 657.996094 197.964844 652.195312 194.84375 C 650.101562 193.738281 646.585938 193.195312 645.347656 191.359375 C 642.1875 187.332031 640.421875 182.023438 638.136719 177.25 C 633.050781 167.183594 628.113281 156.015625 623.722656 145.355469 C 620.5625 138.214844 618.628906 131.074219 614.761719 124.46875 C 596.660156 93.28125 576.980469 74.414062 546.746094 55.90625 C 540.242188 52.050781 532.503906 50.402344 524.257812 48.382812 C 519.855469 48.1875 515.464844 47.835938 511.074219 47.652344 C 508.253906 46.363281 505.445312 42.878906 502.988281 41.230469 C 492.964844 34.636719 467.132812 20.34375 459.75 39.222656 C 455.003906 51.144531 466.777344 62.863281 470.828125 68.910156 C 473.808594 73.125 477.6875 77.898438 479.78125 82.648438 C 481.007812 85.757812 481.363281 89.066406 482.601562 92.367188 C 485.410156 100.425781 488.039062 109.410156 491.746094 116.933594 C 493.679688 120.777344 495.785156 124.816406 498.242188 128.289062 C 499.664062 130.320312 502.121094 131.226562 502.644531 134.535156 C 500.1875 138.195312 499.996094 143.695312 498.59375 148.28125 C 492.269531 168.996094 494.726562 194.65625 503.703125 209.855469 C 506.511719 214.441406 513.1875 224.519531 522.164062 220.667969 C 530.070312 217.367188 528.316406 206.929688 530.605469 197.769531 C 531.128906 195.550781 530.773438 194.101562 531.832031 192.636719 L 531.832031 193.007812 C 534.289062 198.128906 536.757812 203.066406 539.042969 208.21875 C 544.492188 217.195312 553.980469 226.542969 561.898438 232.765625 C 566.105469 236.074219 569.449219 241.75 574.71875 243.773438 L 574.71875 243.214844 L 574.363281 243.214844 C 573.308594 241.566406 571.738281 240.835938 570.328125 239.558594 C 567.164062 236.257812 563.660156 232.21875 561.179688 228.5625 C 553.796875 218.296875 547.292969 206.929688 541.5 195.203125 C 538.679688 189.515625 536.222656 183.28125 533.9375 177.601562 C 532.890625 175.417969 532.890625 172.109375 531.128906 171.007812 C 528.476562 175.035156 524.632812 178.519531 522.699219 183.453125 C 519.355469 191.335938 519.011719 201.054688 517.773438 211.144531 C 517.066406 211.339844 517.421875 211.144531 517.066406 211.503906 C 511.449219 210.042969 509.515625 203.992188 507.398438 198.882812 C 502.132812 185.855469 501.246094 164.957031 505.816406 149.933594 C 507.046875 146.089844 512.335938 133.988281 510.207031 130.332031 C 509.152344 126.835938 505.636719 124.839844 503.703125 122.078125 C 501.414062 118.59375 498.949219 114.203125 497.378906 110.351562 C 493.15625 100.085938 491.03125 88.71875 486.480469 78.464844 C 484.363281 73.695312 480.667969 68.746094 477.6875 64.359375 C 474.34375 59.410156 470.65625 55.929688 468.007812 50.066406 C 467.132812 48.042969 465.902344 44.746094 467.300781 42.550781 C 467.65625 41.089844 468.359375 40.53125 469.769531 40.160156 C 472.046875 38.152344 478.550781 40.707031 480.839844 41.808594 C 487.34375 44.550781 492.792969 47.128906 498.242188 50.972656 C 500.710938 52.804688 503.347656 56.289062 506.5 57.214844 L 510.199219 57.214844 C 515.816406 58.484375 522.152344 57.578125 527.429688 59.226562 C 536.738281 62.339844 545.175781 66.925781 552.742188 71.871094 C 575.765625 87.082031 594.75 108.710938 607.570312 134.558594 C 609.683594 138.761719 610.574219 142.617188 612.496094 147.003906 C 616.191406 156.003906 620.765625 165.164062 624.441406 173.953125 C 628.125 182.570312 631.652344 191.359375 636.929688 198.511719 C 639.558594 202.355469 650.113281 204.375 654.855469 206.382812 C 658.359375 208.03125 663.820312 209.496094 666.984375 211.503906 C 672.964844 215.347656 678.925781 219.75 684.558594 223.976562 C 687.367188 226.160156 696.160156 230.746094 696.683594 234.414062 "/>
<path style=" stroke:none;fill-rule:nonzero;fill:rgb(94.901961%,57.254902%,7.843137%);fill-opacity:1;" d="M 713.4375 436.890625 L 717.070312 436.890625 L 717.070312 418.304688 L 711.597656 418.304688 L 707.144531 430.972656 L 702.292969 418.304688 L 697.027344 418.304688 L 697.027344 436.890625 L 700.464844 436.890625 L 700.464844 422.75 L 700.667969 422.75 L 705.742188 436.890625 L 708.359375 436.890625 L 713.425781 422.75 L 713.425781 436.890625 Z M 684.085938 436.890625 L 687.945312 436.890625 L 687.945312 421.460938 L 692.996094 421.460938 L 692.996094 418.304688 L 678.851562 418.304688 L 678.851562 421.460938 L 684.097656 421.460938 L 684.097656 436.890625 Z M 684.085938 436.890625 "/>
</g>
</svg>
