<?xml version="1.0" encoding="UTF-8"?>
<svg xmlns="http://www.w3.org/2000/svg" xmlns:xlink="http://www.w3.org/1999/xlink" width="900pt" height="650pt" viewBox="0 0 900 650" version="1.1">
<g id="surface1">
<path style=" stroke:none;fill-rule:nonzero;fill:rgb(96.862745%,87.45098%,11.764706%);fill-opacity:1;" d="M 0 0 L 752.941406 0 L 752.941406 543.789062 L 0 543.789062 Z M 0 0 "/>
<path style=" stroke:none;fill-rule:nonzero;fill:rgb(0%,0%,0%);fill-opacity:1;" d="M 622.351562 522.75 C 641.015625 544.757812 665.292969 560.933594 708.234375 560.933594 C 744.308594 560.933594 767.351562 547.910156 767.351562 529.921875 C 767.351562 508.359375 743.675781 500.722656 703.96875 488.179688 L 682.207031 481.433594 C 619.382812 462.105469 577.648438 437.890625 577.648438 386.695312 C 577.648438 339.539062 627.398438 303.640625 705.148438 303.640625 C 760.5 303.640625 800.292969 317.554688 828.96875 353.984375 L 761.175781 385.421875 C 746.25 366.09375 730.148438 358.476562 705.148438 358.476562 C 679.648438 358.476562 663.484375 370.160156 663.484375 385.421875 C 663.484375 404.285156 679.660156 411.921875 717.015625 423.605469 L 738.78125 430.339844 C 812.75 453.246094 854.515625 476.601562 854.515625 529.113281 C 854.515625 585.722656 792.941406 616.734375 710.25 616.734375 C 629.398438 616.734375 577.160156 588.910156 551.601562 552.4375 Z M 314.808594 528.199219 C 328.484375 545.722656 340.925781 560.539062 370.839844 560.539062 C 399.441406 560.539062 417.484375 552.457031 417.484375 521.03125 L 417.484375 307.230469 L 504.542969 307.230469 L 504.542969 521.878906 C 504.542969 586.984375 451.691406 616.617188 374.542969 616.617188 C 304.839844 616.617188 264.46875 590.566406 243.941406 559.1875 Z M 314.808594 528.199219 "/>
</g>
</svg>
