<?xml version="1.0" encoding="UTF-8"?>
<svg xmlns="http://www.w3.org/2000/svg" xmlns:xlink="http://www.w3.org/1999/xlink" width="900pt" height="650pt" viewBox="0 0 900 650" version="1.1">
<g id="surface1">
<path style=" stroke:none;fill-rule:nonzero;fill:rgb(0%,0%,0%);fill-opacity:1;" d="M 844.230469 173.492188 C 776.238281 77.410156 604.152344 -13.460938 387.582031 8.589844 C 40.503906 43.796875 -142.351562 361.253906 134.765625 556.390625 C 469.949219 792.410156 1088.710938 518.375 844.230469 173.492188 Z M 354.988281 627.035156 C 175.738281 604.988281 24.164062 470.253906 20.605469 332.542969 C 16.0625 160.574219 181.265625 47.175781 379.480469 26.210938 C 656.878906 -3.179688 906.976562 143.089844 868.765625 367.882812 C 837.488281 552.296875 599.609375 657.167969 354.988281 627.035156 Z M 273.464844 185.292969 C 262.460938 195.066406 227.152344 187.253906 216.335938 197.0625 C 260.820312 294.460938 300.296875 395.582031 354.988281 485.640625 C 407.152344 388.105469 464.703125 293.007812 379.433594 197.0625 C 365.757812 187.253906 319.824219 200.816406 322.304688 179.375 C 358.734375 168.824219 522.300781 168.824219 558.777344 179.375 C 558.683594 198.921875 512.792969 185.363281 501.695312 197.0625 C 546.789062 292.128906 582.941406 393.6875 640.347656 479.789062 C 655.660156 408.429688 707.964844 382.660156 705.578125 308.9375 C 703.003906 224.929688 557.136719 151.273438 697.429688 114.542969 C 560.835938 8.691406 194.46875 41.089844 134.765625 173.492188 C 189.226562 181.945312 262.835938 155.835938 273.464844 185.292969 Z M 640.394531 556.390625 C 788.835938 517.023438 892.414062 322.191406 779 202.914062 C 781.4375 332.710938 684.597656 440.660156 640.394531 556.390625 Z M 273.464844 568.15625 C 218.726562 446.613281 162.394531 326.285156 93.980469 214.75 C 15.640625 361.863281 115.800781 520.40625 273.464844 568.15625 Z M 338.601562 585.8125 C 392.636719 606.238281 511.0625 599.980469 566.925781 585.8125 C 531.289062 505.527344 504.226562 419.117188 444.613281 356.078125 C 416.003906 437.515625 376.671875 511.242188 338.601562 585.8125 Z M 338.601562 585.8125 "/>
</g>
</svg>
